<svg width="40" height="23" viewBox="0 0 40 23" fill="none" xmlns="http://www.w3.org/2000/svg">
<path d="M27.7148 9.69094V1.61133C31.8281 2.00307 35.7945 7.16096 37.2635 9.69094H27.7148Z" fill="#E0E7EF"/>
<path d="M26.002 1.61133H8.86342V6.26323H9.10825C9.91957 6.26323 10.5773 6.92093 10.5773 7.73225C10.5773 8.54356 9.91957 9.20127 9.10825 9.20127H8.12891V13.1187C10.6752 12.7269 11.3118 14.098 11.3118 14.8325C15.0333 12.8738 18.5753 15.3222 19.8811 16.7912H26.002C26.2468 16.4648 27.2751 15.616 29.4297 14.8325C34.1306 13.2656 35.3058 16.3015 35.3058 18.0154C37.0686 18.7989 38.3254 17.3625 38.7335 16.5464V12.629L37.7541 10.9151H30.2288C27.8944 10.9151 26.002 9.02272 26.002 6.68833V1.61133Z" fill="#B0D9F2" stroke="#B0D9F2" stroke-width="0.528349"/>
<path d="M11.6692 18.7125H9.58473C8.50301 18.7125 7.61914 17.8282 7.61914 16.7465V14.5547" stroke="#444B54" stroke-width="1.58505" stroke-miterlimit="10" stroke-linecap="round" stroke-linejoin="round"/>
<path d="M27.2732 18.7129H19.6621" stroke="#444B54" stroke-width="1.58505" stroke-miterlimit="10" stroke-linejoin="round"/>
<path d="M7.33789 1.61198H27.011C27.011 1.61198 33.2979 1.32727 39.0725 12.6471V16.7464C39.0725 17.8281 38.1886 18.7124 37.1069 18.7124H35.2793" stroke="#444B54" stroke-width="1.58505" stroke-miterlimit="10" stroke-linecap="round" stroke-linejoin="round"/>
<path d="M35.2187 18.7279C35.2187 20.3582 33.8963 21.6786 32.2661 21.6786C30.6358 21.6786 29.3145 20.3582 29.3145 18.7279C29.3145 17.0967 30.6363 15.7744 32.2661 15.7744C33.8963 15.7744 35.2187 17.0967 35.2187 18.7279Z" stroke="#444B54" stroke-width="1.58505" stroke-miterlimit="10"/>
<path d="M17.644 18.7279C17.644 20.3582 16.3221 21.6786 14.6928 21.6786C13.0616 21.6786 11.7402 20.3582 11.7402 18.7279C11.7402 17.0967 13.0616 15.7744 14.6928 15.7744C16.3221 15.7744 17.644 17.0967 17.644 18.7279Z" stroke="#444B54" stroke-width="1.58505" stroke-miterlimit="10"/>
<path d="M27.5469 4.25098V7.70562C27.5469 7.70562 27.5469 10.1463 29.8738 10.1463H37.5183" stroke="#444B54" stroke-width="1.58505" stroke-miterlimit="10" stroke-linecap="round" stroke-linejoin="round"/>
<path d="M7.81663 4.83203H3.23242" stroke="#444B54" stroke-width="1.58505" stroke-miterlimit="10" stroke-linecap="round" stroke-linejoin="round"/>
<path d="M9.48886 14.416H3.37891" stroke="#444B54" stroke-width="1.58505" stroke-miterlimit="10" stroke-linecap="round" stroke-linejoin="round"/>
<path d="M6.39874 11.2207H1.27344" stroke="#444B54" stroke-width="1.58505" stroke-miterlimit="10" stroke-linecap="round" stroke-linejoin="round"/>
<path d="M9.47423 8.02637H5.61133" stroke="#444B54" stroke-width="1.58505" stroke-miterlimit="10" stroke-linecap="round" stroke-linejoin="round"/>
</svg>
