<svg width="31" height="22" viewBox="0 0 31 22" fill="none" xmlns="http://www.w3.org/2000/svg">
<path d="M23.6422 10.6541C24.0428 10.5539 24.462 10.501 24.8939 10.501C27.6899 10.501 29.9578 12.7248 29.9578 15.4686C29.9578 18.2125 27.6899 20.4362 24.8939 20.4362C22.0969 20.4362 19.8301 18.2125 19.8301 15.4686C19.8301 13.1485 21.4509 11.2002 23.6422 10.6541Z" fill="white"/>
<path d="M4.35509 10.6541C4.75564 10.5539 5.17485 10.501 5.60682 10.501C8.40283 10.501 10.6707 12.7248 10.6707 15.4686C10.6707 18.2125 8.40283 20.4362 5.60682 20.4362C2.80982 20.4362 0.542969 18.2125 0.542969 15.4686C0.542969 13.1485 2.16383 11.2002 4.35509 10.6541Z" fill="#ADF9D2"/>
<path d="M5.75107 21.1107C2.57993 21.1107 0 18.5798 0 15.4689C0 12.3581 2.57993 9.82715 5.75107 9.82715C6.47629 9.82715 7.18187 9.95755 7.84838 10.2149C10.0675 11.0668 11.5021 13.1293 11.5021 15.4689C11.5021 18.5798 8.92221 21.1107 5.75107 21.1107ZM5.75107 11.1756C3.33774 11.1756 1.37445 13.1016 1.37445 15.4689C1.37445 17.8363 3.33784 19.7624 5.75107 19.7624C8.1643 19.7624 10.1277 17.8363 10.1277 15.4689C10.1277 13.6884 9.0359 12.1187 7.34631 11.4701C6.83963 11.2744 6.3033 11.1756 5.75107 11.1756V11.1756ZM24.8932 21.1107C21.722 21.1107 19.1421 18.5798 19.1421 15.4689C19.1421 12.885 20.9227 10.6364 23.4722 10.001C23.9366 9.88527 24.414 9.82687 24.8932 9.82715C28.0643 9.82715 30.6442 12.3581 30.6442 15.4689C30.6442 18.5798 28.0642 21.1107 24.8932 21.1107ZM24.8932 11.1756C24.526 11.1756 24.162 11.22 23.8112 11.3077C21.8711 11.7913 20.5164 13.5024 20.5164 15.4689C20.5164 17.8363 22.4798 19.7624 24.8931 19.7624C27.3063 19.7624 29.2697 17.8363 29.2697 15.4689C29.2697 13.1016 27.3064 11.1756 24.8932 11.1756V11.1756Z" fill="#444B54"/>
<path d="M15.9727 16.1419H5.75171C5.63984 16.1419 5.52966 16.1151 5.43073 16.0638C5.33181 16.0126 5.24713 15.9384 5.18407 15.8478C5.121 15.7571 5.08144 15.6527 5.06883 15.5437C5.05622 15.4346 5.07094 15.3242 5.11171 15.222L8.82861 5.9068C8.87901 5.78058 8.96703 5.67219 9.08118 5.59578C9.19533 5.51938 9.33032 5.47851 9.46851 5.47852H21.4429C21.5635 5.47851 21.6819 5.50963 21.7863 5.56874C21.8908 5.62785 21.9775 5.71289 22.0379 5.81529C22.0982 5.9177 22.13 6.03389 22.1301 6.15217C22.1302 6.27046 22.0986 6.38669 22.0384 6.48919L16.568 15.8042C16.5078 15.9068 16.421 15.9921 16.3165 16.0514C16.212 16.1106 16.0934 16.1419 15.9727 16.1419V16.1419ZM6.75869 14.7935H15.5755L20.254 6.82685H9.93749L6.75869 14.7935Z" fill="#444B54"/>
<path d="M15.9728 16.1428C15.8642 16.143 15.7572 16.1178 15.6604 16.0695C15.5636 16.0212 15.48 15.951 15.4162 15.8648L6.54733 3.89074C6.49427 3.81912 6.45611 3.73795 6.43503 3.65187C6.41395 3.56578 6.41036 3.47647 6.42446 3.38902C6.43856 3.30158 6.47008 3.21771 6.51723 3.14222C6.56437 3.06672 6.62621 3.00107 6.69921 2.94902C6.77221 2.89697 6.85495 2.85954 6.9427 2.83885C7.03046 2.81817 7.1215 2.81465 7.21064 2.82848C7.39067 2.85642 7.552 2.95338 7.65916 3.09801L16.5283 15.0722C16.6354 15.2169 16.6795 15.3974 16.651 15.5739C16.6225 15.7505 16.5236 15.9088 16.3762 16.0139C16.2591 16.0977 16.1178 16.1429 15.9728 16.1428V16.1428ZM24.8929 16.1429C24.7403 16.1428 24.5921 16.0928 24.4716 16.0008C24.3511 15.9089 24.2652 15.7803 24.2275 15.6352L20.4047 0.924892C20.3824 0.839097 20.3776 0.749836 20.3904 0.662205C20.4033 0.574574 20.4337 0.49029 20.4797 0.414166C20.5258 0.338041 20.5867 0.271566 20.659 0.218538C20.7313 0.165509 20.8135 0.126966 20.901 0.105107C21.2678 0.0129393 21.6429 0.230984 21.7366 0.591854L25.5594 15.302C25.5853 15.4016 25.5876 15.5057 25.5662 15.6063C25.5448 15.7069 25.5003 15.8014 25.436 15.8825C25.3717 15.9636 25.2893 16.0293 25.1952 16.0744C25.1011 16.1195 24.9977 16.143 24.8929 16.1429V16.1429Z" fill="#444B54"/>
<path d="M9.60727 4.16846H4.58957C4.4073 4.16846 4.23251 4.09743 4.10363 3.971C3.97475 3.84457 3.90234 3.6731 3.90234 3.4943C3.90234 3.3155 3.97475 3.14402 4.10363 3.01759C4.23251 2.89116 4.4073 2.82013 4.58957 2.82013H9.60727C9.78954 2.82013 9.96433 2.89116 10.0932 3.01759C10.2221 3.14402 10.2945 3.3155 10.2945 3.4943C10.2945 3.6731 10.2221 3.84457 10.0932 3.971C9.96433 4.09743 9.78954 4.16846 9.60727 4.16846V4.16846ZM23.4411 1.43231H18.4224C18.2401 1.43231 18.0653 1.36129 17.9364 1.23486C17.8076 1.10843 17.7352 0.936949 17.7352 0.758149C17.7352 0.57935 17.8076 0.407873 17.9364 0.281443C18.0653 0.155012 18.2401 0.0839844 18.4224 0.0839844H23.4411C23.6233 0.0839844 23.7981 0.155012 23.927 0.281443C24.0559 0.407873 24.1283 0.57935 24.1283 0.758149C24.1283 0.936949 24.0559 1.10843 23.927 1.23486C23.7981 1.36129 23.6233 1.43231 23.4411 1.43231V1.43231Z" fill="#444B54"/>
</svg>
