<svg width="63" height="41" viewBox="0 0 63 41" fill="none" xmlns="http://www.w3.org/2000/svg">
<path d="M55.2754 34.2209H58.6254C60.6354 34.2209 61.9754 32.8809 61.9754 30.8709C61.9754 17.4709 51.9254 7.4209 45.2254 7.4209H8.37539C6.36539 7.4209 5.02539 8.7609 5.02539 10.7709V30.8709C5.02539 32.8809 6.36539 34.2209 8.37539 34.2209H55.2754Z" fill="#FFB142"/>
<mask id="mask0_398_521" style="mask-type:alpha" maskUnits="userSpaceOnUse" x="5" y="7" width="57" height="28">
<path d="M55.2754 34.2199H58.6254C60.6354 34.2199 61.9754 32.8799 61.9754 30.8699C61.9754 17.4699 51.9254 7.41992 45.2254 7.41992H8.37539C6.36539 7.41992 5.02539 8.75992 5.02539 10.7699V30.8699C5.02539 32.8799 6.36539 34.2199 8.37539 34.2199H55.2754Z" fill="white"/>
</mask>
<g mask="url(#mask0_398_521)">
<path d="M50.5854 11.5866H55.2754H61.1583V23.3525H50.5854C49.766 23.3525 49.1468 23.0829 48.7344 22.6705C48.322 22.2581 48.0524 21.6389 48.0524 20.8195V14.1195C48.0524 13.3002 48.322 12.6809 48.7344 12.2685C49.1468 11.8561 49.766 11.5866 50.5854 11.5866Z" fill="white" stroke="#444B54" stroke-width="1.63415"/>
</g>
<path d="M5.69629 32.2098H58.6263C59.2963 32.2098 59.9663 31.5398 59.9663 30.8698V24.8398H60.6363L61.9763 32.2098L58.6263 34.2198H7.70629L5.69629 32.2098Z" fill="#FF9B2F"/>
<path d="M55.2754 34.2209H58.6254C60.6354 34.2209 61.9754 32.8809 61.9754 30.8709C61.9754 17.4709 51.9254 7.4209 45.2254 7.4209H8.37539C6.36539 7.4209 5.02539 8.7609 5.02539 10.7709V30.8709C5.02539 32.8809 6.36539 34.2209 8.37539 34.2209H55.2754Z" stroke="#444B54" stroke-width="1.63415" stroke-linejoin="round"/>
<path d="M15.075 29.5303C9.045 29.5303 9.715 34.2203 8.375 34.2203H21.775C20.435 34.2203 21.105 29.5303 15.075 29.5303Z" fill="#1A3752" stroke="#444B54" stroke-width="1.08943" stroke-linejoin="round"/>
<path d="M50.5857 29.5303C44.5557 29.5303 45.2257 34.2203 43.8857 34.2203H57.2857C55.9457 34.2203 56.6157 29.5303 50.5857 29.5303Z" fill="#444B54" stroke="#444B54" stroke-width="1.08943" stroke-linejoin="round"/>
<path d="M55.6105 34.5553C55.6105 37.3305 53.3608 39.5803 50.5855 39.5803C47.8103 39.5803 45.5605 37.3305 45.5605 34.5553C45.5605 31.78 47.8103 29.5303 50.5855 29.5303C53.3608 29.5303 55.6105 31.78 55.6105 34.5553Z" fill="white" stroke="#444B54" stroke-width="1.63415" stroke-linecap="round" stroke-linejoin="round"/>
<path d="M41.2057 10.7695C43.2157 10.7695 44.5557 12.1095 44.5557 14.1195V20.8195C44.5557 22.8295 43.2157 24.1695 41.2057 24.1695H31.1557C29.1457 24.1695 27.8057 22.8295 27.8057 20.8195V14.1195C27.8057 12.1095 29.1457 10.7695 31.1557 10.7695H41.2057Z" fill="white"/>
<path d="M21.775 10.7695C23.785 10.7695 25.125 12.1095 25.125 14.1195V20.8195C25.125 22.8295 23.785 24.1695 21.775 24.1695H11.725C9.715 24.1695 8.375 22.8295 8.375 20.8195V14.1195C8.375 12.1095 9.715 10.7695 11.725 10.7695H21.775Z" fill="white"/>
<path d="M20.1008 34.5553C20.1008 37.3305 17.851 39.5803 15.0758 39.5803C12.3006 39.5803 10.0508 37.3305 10.0508 34.5553C10.0508 31.78 12.3006 29.5303 15.0758 29.5303C17.851 29.5303 20.1008 31.78 20.1008 34.5553Z" fill="white" stroke="#444B54" stroke-width="1.63415" stroke-linecap="round" stroke-linejoin="round"/>
<path d="M21.775 10.7695C23.785 10.7695 25.125 12.1095 25.125 14.1195V20.8195C25.125 22.8295 23.785 24.1695 21.775 24.1695H11.725C9.715 24.1695 8.375 22.8295 8.375 20.8195V14.1195C8.375 12.1095 9.715 10.7695 11.725 10.7695H21.775Z" stroke="#444B54" stroke-width="1.63415" stroke-linejoin="round"/>
<path d="M41.2057 10.7695C43.2157 10.7695 44.5557 12.1095 44.5557 14.1195V20.8195C44.5557 22.8295 43.2157 24.1695 41.2057 24.1695H31.1557C29.1457 24.1695 27.8057 22.8295 27.8057 20.8195V14.1195C27.8057 12.1095 29.1457 10.7695 31.1557 10.7695H41.2057Z" stroke="#444B54" stroke-width="1.63415" stroke-linejoin="round"/>
<mask id="mask1_398_521" style="mask-type:alpha" maskUnits="userSpaceOnUse" x="-18" y="0" width="57" height="27">
<path d="M32.25 26.8H35.6C37.61 26.8 38.95 25.46 38.95 23.45C38.95 10.05 28.9 0 22.2 0H-14.65C-16.66 0 -18 1.34 -18 3.35V23.45C-18 25.46 -16.66 26.8 -14.65 26.8H32.25Z" fill="white"/>
</mask>
<g mask="url(#mask1_398_521)">
</g>
</svg>
