<?xml version="1.0" encoding="UTF-8" standalone="no"?>
<svg
   width="33"
   height="33"
   viewBox="0 0 33 33"
   fill="none"
   version="1.1"
   id="svg20"
   sodipodi:docname="closed_street_new_icon.svg"
   inkscape:version="1.2.1 (9c6d41e410, 2022-07-14)"
   xmlns:inkscape="http://www.inkscape.org/namespaces/inkscape"
   xmlns:sodipodi="http://sodipodi.sourceforge.net/DTD/sodipodi-0.dtd"
   xmlns="http://www.w3.org/2000/svg"
   xmlns:svg="http://www.w3.org/2000/svg">
  <defs
     id="defs24" />
  <sodipodi:namedview
     id="namedview22"
     pagecolor="#ffffff"
     bordercolor="#111111"
     borderopacity="1"
     inkscape:showpageshadow="0"
     inkscape:pageopacity="0"
     inkscape:pagecheckerboard="1"
     inkscape:deskcolor="#d1d1d1"
     showgrid="false"
     inkscape:zoom="17.934799"
     inkscape:cx="7.7224171"
     inkscape:cy="18.567255"
     inkscape:window-width="1920"
     inkscape:window-height="1017"
     inkscape:window-x="-8"
     inkscape:window-y="-8"
     inkscape:window-maximized="1"
     inkscape:current-layer="svg20" />
  <g
     id="g1596"
     transform="matrix(1.1776157,0,0,1.1868428,-3.0735204,-2.7526624)">
    <path
       d="m 16.4786,4.02832 c 3.3374,0 6.3589,1.35278 8.546,3.53993 2.1872,2.18715 3.54,5.20865 3.54,8.54605 0,3.3374 -1.3528,6.359 -3.54,8.5461 -2.1871,2.1871 -5.2086,3.5399 -8.546,3.5399 -3.3374,0 -6.359,-1.3528 -8.5461,-3.5399 -2.18715,-2.1872 -3.53992,-5.2086 -3.53992,-8.5461 0,-3.3374 1.35277,-6.35891 3.53992,-8.54605 2.1872,-2.18715 5.2086,-3.53993 8.5461,-3.53993 z m 8.012,4.074 C 22.4402,6.05192 19.6075,4.7837 16.4786,4.7837 c -3.1289,0 -5.9616,1.26822 -8.012,3.31862 -2.0504,2.05038 -3.31863,4.88308 -3.31863,8.01198 0,3.1289 1.26823,5.9616 3.31863,8.012 2.0504,2.0504 4.8831,3.3186 8.012,3.3186 3.1289,0 5.9616,-1.2682 8.012,-3.3186 2.0504,-2.0504 3.3186,-4.8831 3.3186,-8.012 0,-3.1289 -1.2682,-5.9616 -3.3186,-8.01198 z"
       fill="#444b54"
       id="path2" />
    <path
       d="m 16.4784,6.25488 c 2.7225,0 5.1873,1.10357 6.9715,2.88773 1.7841,1.78419 2.8877,4.24899 2.8877,6.97149 0,2.7225 -1.1036,5.1873 -2.8877,6.9715 -1.7842,1.7842 -4.249,2.8877 -6.9715,2.8877 -2.7225,0 -5.1874,-1.1035 -6.97153,-2.8877 -1.78416,-1.7842 -2.88773,-4.249 -2.88773,-6.9715 0,-2.7225 1.10357,-5.1873 2.88773,-6.97149 C 11.291,7.35845 13.7558,6.25488 16.4784,6.25488 Z m 6.4374,3.42181 C 21.2683,8.02925 18.9923,7.01026 16.4784,7.01026 c -2.514,0 -4.79,1.01899 -6.4374,2.66643 -1.64748,1.64741 -2.66647,3.92341 -2.66647,6.43741 0,2.514 1.019,4.79 2.66647,6.4374 1.6474,1.6474 3.9234,2.6664 6.4374,2.6664 2.5139,0 4.7899,-1.019 6.4374,-2.6664 1.6474,-1.6475 2.6664,-3.9235 2.6664,-6.4374 0,-2.514 -1.019,-4.79 -2.6664,-6.43741 z"
       fill="#444b54"
       id="path4" />
    <path
       d="M 9.97155,9.21387 23.3787,22.6211 22.8447,23.1552 9.4375,9.74792 Z"
       fill="#444b54"
       id="path6" />
    <path
       d="M 23.3788,9.60729 9.9716,23.0145 9.4375,22.4804 22.8447,9.07324 Z"
       fill="#444b54"
       id="path8" />
    <path
       fill-rule="evenodd"
       clip-rule="evenodd"
       d="m 16.479,6.25558 c 2.7226,0 5.1874,1.10356 6.9715,2.88773 1.7842,1.78419 2.8878,4.24899 2.8878,6.97149 0,2.7225 -1.1036,5.1873 -2.8878,6.9715 -1.7841,1.7842 -4.2489,2.8877 -6.9715,2.8877 -2.7225,0 -5.1873,-1.1035 -6.97145,-2.8877 -1.78416,-1.7842 -2.88773,-4.249 -2.88773,-6.9715 0,-2.7225 1.10357,-5.1873 2.88773,-6.97149 C 11.2917,7.35914 13.7565,6.25558 16.479,6.25558 Z m 8.012,1.84723 c -2.0504,-2.0504 -4.8831,-3.31863 -8.012,-3.31863 -3.1289,0 -5.9616,1.26823 -8.01193,3.31863 -2.05041,2.05039 -3.31863,4.88309 -3.31863,8.01199 0,3.1289 1.26822,5.9616 3.31863,8.012 2.05043,2.0504 4.88303,3.3186 8.01193,3.3186 3.1289,0 5.9616,-1.2682 8.012,-3.3186 2.0504,-2.0504 3.3186,-4.8831 3.3186,-8.012 0,-3.1289 -1.2682,-5.9616 -3.3186,-8.01199 z"
       fill="#ef9a9a"
       id="path10" />
    <path
       fill-rule="evenodd"
       clip-rule="evenodd"
       d="M 22.5692,9.34798 C 20.956,7.89507 18.8206,7.01074 16.4786,7.01074 c -2.4142,0 -4.609,0.93974 -6.2384,2.47335 l 6.0964,6.09641 6.2326,-6.23256 z"
       fill="#ffffff"
       id="path12" />
    <path
       fill-rule="evenodd"
       clip-rule="evenodd"
       d="m 23.1095,9.87598 -6.2384,6.23842 6.2384,6.2384 c 1.5336,-1.6294 2.4733,-3.8242 2.4733,-6.2384 0,-2.4143 -0.9397,-4.609 -2.4733,-6.23842 z"
       fill="#ffffff"
       id="path14" />
    <path
       fill-rule="evenodd"
       clip-rule="evenodd"
       d="m 22.5692,22.881 -6.2326,-6.2326 -6.0964,6.0964 c 1.6294,1.5336 3.8242,2.4734 6.2384,2.4734 2.342,0 4.4775,-0.8844 6.0906,-2.3372 z"
       fill="#ffffff"
       id="path16" />
    <path
       fill-rule="evenodd"
       clip-rule="evenodd"
       d="M 9.71219,22.2045 15.8028,16.114 9.71224,10.0234 C 8.25933,11.6366 7.375,13.772 7.375,16.114 c 0,2.342 0.88433,4.4774 2.33722,6.0905 z"
       fill="#ffffff"
       id="path18" />
  </g>
</svg>
