<svg width="37" height="27" viewBox="0 0 37 27" fill="none" xmlns="http://www.w3.org/2000/svg">
<rect x="22.8828" y="10.4258" width="8.34229" height="2.78076" fill="#E0E7EF"/>
<rect x="1.33203" y="10.4258" width="8.34229" height="2.78076" fill="#E0E7EF"/>
<path d="M16.3335 12.958C18.2285 12.958 19.7646 11.4218 19.7646 9.52685C19.7646 7.63188 18.2285 6.0957 16.3335 6.0957C14.4385 6.0957 12.9023 7.63188 12.9023 9.52685C12.9023 11.4218 14.4385 12.958 16.3335 12.958Z" fill="#B0D9F2" stroke="black" stroke-width="1.0909" stroke-miterlimit="10" stroke-linecap="round"/>
<path d="M18.4497 25.5928V19.4658H13.8477V25.5928" stroke="black" stroke-width="1.0909" stroke-miterlimit="10" stroke-linejoin="round"/>
<path d="M25.4201 5.60299L16.4917 0.819336L7.24609 5.60299" stroke="black" stroke-width="1.0909" stroke-miterlimit="10" stroke-linecap="round"/>
<path d="M10.0273 6.30469V25.4567" stroke="black" stroke-width="1.0909" stroke-miterlimit="10"/>
<path d="M2.82422 15.8623V25.4567" stroke="black" stroke-width="1.0909" stroke-miterlimit="10"/>
<path d="M9.91535 13.737H1.00977V10.333H9.91535" stroke="black" stroke-width="1.0909" stroke-miterlimit="10" stroke-linejoin="round"/>
<path d="M6.30273 17.2256V19.7349" stroke="black" stroke-width="1.0909" stroke-miterlimit="10"/>
<path d="M6.30273 21.4648V23.9741" stroke="black" stroke-width="1.0909" stroke-miterlimit="10"/>
<path d="M22.707 6.48145V25.4552" stroke="black" stroke-width="1.0909" stroke-miterlimit="10"/>
<path d="M22.7539 13.7361H31.659V10.332H22.7539" stroke="black" stroke-width="1.0909" stroke-miterlimit="10" stroke-linejoin="round"/>
<path d="M26.3672 17.2256V19.7349" stroke="black" stroke-width="1.0909" stroke-miterlimit="10"/>
<path d="M26.3672 21.4658V23.9751" stroke="black" stroke-width="1.0909" stroke-miterlimit="10"/>
<path d="M29.8457 15.8652V25.4597" stroke="black" stroke-width="1.0909" stroke-miterlimit="10"/>
<path d="M16.334 8.13477V9.52747L17.3401 10.0972" stroke="black" stroke-width="1.0909" stroke-miterlimit="10" stroke-linecap="round" stroke-linejoin="round"/>
<path d="M34.416 25.8477H36.0897" stroke="black" stroke-width="1.0909" stroke-miterlimit="10" stroke-linecap="round"/>
<path d="M0.636719 25.8457H32.1434" stroke="black" stroke-width="1.0909" stroke-miterlimit="10" stroke-linecap="round" stroke-linejoin="round"/>
</svg>
