<svg width="24" height="24" viewBox="0 0 24 24" fill="none" xmlns="http://www.w3.org/2000/svg">
<g clip-path="url(#clip0_398_4312)">
<path d="M24 11H22C21.7674 8.69711 20.7432 6.5462 19.102 4.91409C17.4607 3.28198 15.3042 2.26975 13 2.05V0H11V2.05C8.69711 2.28258 6.5462 3.30682 4.91409 4.94804C3.28198 6.58927 2.26975 8.74585 2.05 11.05H0V13.05H2.05C2.27165 15.3619 3.29106 17.5245 4.93329 19.1667C6.57552 20.8089 8.73814 21.8284 11.05 22.05V24H13.05V22C15.3529 21.7674 17.5038 20.7432 19.1359 19.102C20.768 17.4607 21.7803 15.3042 22 13H24V11ZM13 19.93V17H11V19.93C9.23998 19.7068 7.60408 18.9049 6.34959 17.6504C5.0951 16.3959 4.29319 14.76 4.07 13H7V11H4.07C4.29319 9.23998 5.0951 7.60408 6.34959 6.34959C7.60408 5.0951 9.23998 4.29319 11 4.07V7H13V4.07C14.76 4.29319 16.3959 5.0951 17.6504 6.34959C18.9049 7.60408 19.7068 9.23998 19.93 11H17V13H19.93C19.7068 14.76 18.9049 16.3959 17.6504 17.6504C16.3959 18.9049 14.76 19.7068 13 19.93Z" fill="#444444"/>
<path d="M12 14C13.1046 14 14 13.1046 14 12C14 10.8954 13.1046 10 12 10C10.8954 10 10 10.8954 10 12C10 13.1046 10.8954 14 12 14Z" fill="#444444"/>
</g>
<defs>
<clipPath id="clip0_398_4312">
<rect width="24" height="24" fill="white"/>
</clipPath>
</defs>
</svg>
