<?xml version="1.0" encoding="UTF-8" standalone="no"?>
<!-- Generator: Adobe Illustrator 26.0.3, SVG Export Plug-In . SVG Version: 6.00 Build 0)  -->

<svg
   version="1.1"
   id="Layer_1"
   x="0px"
   y="0px"
   viewBox="0 0 841.89 595.28"
   style="enable-background:new 0 0 841.89 595.28;"
   xml:space="preserve"
   sodipodi:docname="naim_basofash_dark.svg"
   inkscape:version="1.2.1 (9c6d41e410, 2022-07-14)"
   xmlns:inkscape="http://www.inkscape.org/namespaces/inkscape"
   xmlns:sodipodi="http://sodipodi.sourceforge.net/DTD/sodipodi-0.dtd"
   xmlns:xlink="http://www.w3.org/1999/xlink"
   xmlns="http://www.w3.org/2000/svg"
   xmlns:svg="http://www.w3.org/2000/svg"><defs
   id="defs27">
	<defs
   id="defs9">
		<rect
   id="SVGID_1_"
   x="108.96"
   y="98.21"
   width="624.05"
   height="398.55" />
	</defs>
	<clipPath
   id="SVGID_00000023257471777259102090000002665924464249626784_">
		<use
   xlink:href="#SVGID_1_"
   style="overflow:visible;"
   id="use11" />
	</clipPath>
	
	
	
	
</defs><sodipodi:namedview
   id="namedview25"
   pagecolor="#ffffff"
   bordercolor="#111111"
   borderopacity="1"
   inkscape:showpageshadow="0"
   inkscape:pageopacity="0"
   inkscape:pagecheckerboard="1"
   inkscape:deskcolor="#d1d1d1"
   showgrid="false"
   inkscape:zoom="0.99423523"
   inkscape:cx="229.82489"
   inkscape:cy="373.15113"
   inkscape:window-width="1920"
   inkscape:window-height="1017"
   inkscape:window-x="-8"
   inkscape:window-y="-8"
   inkscape:window-maximized="1"
   inkscape:current-layer="Layer_1" />
<style
   type="text/css"
   id="style2">
	.st0{fill:#FFEF20;}
	.st1{clip-path:url(#SVGID_00000049211625008308503580000002261948125005394363_);fill:#FFEF20;}
	.st2{clip-path:url(#SVGID_00000049211625008308503580000002261948125005394363_);fill:#FFFFFF;}
</style>


<polygon
   class="st0"
   points="250.46,187.82 273.72,187.82 267.63,222.61 244.37,222.61 "
   id="polygon4"
   transform="matrix(1.2272608,0,0,1.5746739,-86.118297,-48.461915)"
   style="fill:#3079e6;fill-opacity:1" /><polygon
   class="st0"
   points="282.09,187.82 305.35,187.82 299.27,222.61 276.01,222.61 "
   id="polygon6"
   transform="matrix(1.2272608,0,0,1.5746739,-86.118297,-48.461915)"
   style="fill:#3079e6;fill-opacity:1" /><path
   style="fill:#3079e6;fill-opacity:1"
   d="m 718.11,331.05 v -92.19 h -95.78 v 20.93 h 69.38 v 71.27 h -69.38 v 20.93 H 733 V 331.06 H 718.11 Z M 576.52,298.62 c 0,24.89 -6.41,32.43 -28.28,32.43 h -31.11 v -71.27 h 59.39 z m 19.23,-59.76 H 478.86 v 20.93 h 11.88 v 92.19 h 59.95 c 36.58,0 52.22,-11.69 52.22,-51.85 v -53.92 c 0.01,-4.72 -2.63,-7.35 -7.16,-7.35 M 432.67,351.98 h 26.4 V 238.86 h -46.19 v 20.93 h 19.8 v 92.19 z M 359.9,238.86 h -78.62 v 20.93 h 10.37 v 42.99 h 25.26 v -42.99 h 34.5 c 14.52,0 18.48,5.85 18.48,22.44 v 48.83 h -88.61 v 20.93 H 396.29 V 280.9 c 0,-29.79 -8.68,-42.04 -36.39,-42.04 m -142.53,0 v 20.93 h 18.1 v 52.04 c 0,13.95 -5.66,19.23 -20.17,19.23 h -17.53 v -92.19 h -25.45 v 92.19 h -17.35 c -14.71,0 -20.36,-5.28 -20.36,-19.23 v -52.04 h 18.1 v -20.93 h -43.74 v 74.85 c 0,28.09 10.56,38.27 40.35,38.27 h 71.46 c 29.79,0 40.35,-10.18 40.35,-38.27 v -74.85 z"
   clip-path="url(#SVGID_00000023257471777259102090000002665924464249626784_)"
   id="path14"
   transform="matrix(1.2272608,0,0,1.5746739,-86.118297,-48.461915)" /><path
   style="fill:#b0d9f2;fill-opacity:1"
   d="m 663.25,211.33 h 46.57 c 4.71,0 7.35,-2.64 7.35,-7.35 V 98.21 h -49.4 v 21.12 h 23 v 71.08 h -27.53 v 20.92 z M 640.44,98.21 h -39.21 v 20.93 h 20.17 v 48.27 c 0,16.21 -6.79,23 -23.57,23 H 580.3 v -92.2 h -48.08 v 20.93 h 21.68 v 71.27 h -24.7 v 20.93 h 73.53 c 28.85,0 45.06,-10.37 45.06,-43.93 v -61.84 c 0,-4.72 -2.64,-7.36 -7.35,-7.36 m -153.09,68.63 h 26.39 V 98.21 h -49.77 v 20.93 h 23.38 z m -68.62,23.56 h -59.2 v -71.27 h 59.2 z M 437.39,98.21 H 321.44 v 20.93 h 11.69 v 92.19 h 111.99 v -105.2 c 0,-5.09 -3.02,-7.92 -7.73,-7.92"
   clip-path="url(#SVGID_00000023257471777259102090000002665924464249626784_)"
   id="path16"
   transform="matrix(1.2272608,0,0,1.5746739,-86.118297,-80.461915)" />
</svg>
