<svg width="41" height="49" viewBox="0 0 41 49" fill="none" xmlns="http://www.w3.org/2000/svg">
<path d="M17.2839 29.4741H23.3821C23.9919 29.4741 24.3985 29.0676 24.3985 28.4578C24.3985 27.848 23.9919 27.4414 23.3821 27.4414H17.2839C16.6741 27.4414 16.2676 27.848 16.2676 28.4578C16.2676 29.0676 16.6741 29.4741 17.2839 29.4741Z" fill="#444B54"/>
<path d="M17.2839 33.5396H23.3821C23.9919 33.5396 24.3985 33.133 24.3985 32.5232C24.3985 31.9134 23.9919 31.5068 23.3821 31.5068H17.2839C16.6741 31.5068 16.2676 31.9134 16.2676 32.5232C16.2676 33.133 16.6741 33.5396 17.2839 33.5396Z" fill="#444B54"/>
<rect x="4.13477" y="1.37793" width="32.3935" height="6.203" rx="3.1015" fill="#E6863C"/>
<path d="M40.456 47.1592L33.6464 38.6218C36.3906 38.6218 38.6266 36.2841 38.6266 33.54V8.1309C38.6266 3.65891 34.9677 0 30.4957 0H10.1684C5.69645 0 2.03754 3.65891 2.03754 8.1309V33.54C2.03754 36.2841 4.27354 38.6218 7.01772 38.6218L0.208087 47.1592C-0.0968214 47.5658 -0.0968211 48.2772 0.41136 48.5821C0.817905 48.887 1.52936 48.887 1.83427 48.3789L2.34245 47.769H38.3217L38.8299 48.3789C39.1348 48.7854 39.8462 48.887 40.2528 48.5821C40.761 48.1756 40.761 47.5658 40.456 47.1592ZM36.5939 8.1309V22.36H21.3484V8.1309H36.5939ZM10.1684 2.03273H30.4957C33.1382 2.03273 35.3742 3.76054 36.1873 6.09818H4.47681C5.2899 3.76054 7.5259 2.03273 10.1684 2.03273ZM4.07027 8.1309H19.3157V22.36H4.07027V8.1309ZM4.07027 33.54V24.3927H36.5939V33.54C36.5939 35.2678 35.2726 36.5891 33.5448 36.5891H7.11935C5.39154 36.5891 4.07027 35.2678 4.07027 33.54ZM32.6301 40.6545H8.03408L9.66026 38.6218H31.0039L32.6301 40.6545ZM3.96863 45.7363L6.4079 42.6872H34.2562L36.6955 45.7363H3.96863Z" fill="#444B54"/>
<path d="M10.169 34.5557C12.405 34.5557 14.2344 32.7263 14.2344 30.4903C14.2344 28.2543 12.405 26.4248 10.169 26.4248C7.93297 26.4248 6.10352 28.2543 6.10352 30.4903C6.10352 32.7263 7.93297 34.5557 10.169 34.5557ZM10.169 28.4575C11.287 28.4575 12.2017 29.3723 12.2017 30.4903C12.2017 31.6083 11.287 32.523 10.169 32.523C9.05097 32.523 8.13624 31.6083 8.13624 30.4903C8.13624 29.3723 9.05097 28.4575 10.169 28.4575Z" fill="#444B54"/>
<path d="M30.4951 34.5557C32.7311 34.5557 34.5606 32.7263 34.5606 30.4903C34.5606 28.2543 32.7311 26.4248 30.4951 26.4248C28.2591 26.4248 26.4297 28.2543 26.4297 30.4903C26.4297 32.7263 28.2591 34.5557 30.4951 34.5557ZM30.4951 28.4575C31.6131 28.4575 32.5279 29.3723 32.5279 30.4903C32.5279 31.6083 31.6131 32.523 30.4951 32.523C29.3771 32.523 28.4624 31.6083 28.4624 30.4903C28.4624 29.3723 29.3771 28.4575 30.4951 28.4575Z" fill="#444B54"/>
</svg>
