<svg width="35" height="26" viewBox="0 0 35 26" fill="none" xmlns="http://www.w3.org/2000/svg">
<path d="M4.9533 24.3041C6.70409 24.3041 8.12339 22.8848 8.12339 21.134C8.12339 19.3832 6.70409 17.9639 4.9533 17.9639C3.2025 17.9639 1.7832 19.3832 1.7832 21.134C1.7832 22.8848 3.2025 24.3041 4.9533 24.3041Z" fill="#BD98FA"/>
<path d="M30.3146 24.3041C32.0654 24.3041 33.4847 22.8848 33.4847 21.134C33.4847 19.3832 32.0654 17.9639 30.3146 17.9639C28.5638 17.9639 27.1445 19.3832 27.1445 21.134C27.1445 22.8848 28.5638 24.3041 30.3146 24.3041Z" fill="#BD98FA"/>
<path d="M30.3141 16.9072C28.3486 16.9072 26.6976 18.2571 26.2268 20.0773H12.8939L8.11341 13.3841L10.2009 5.55559C10.2252 5.46683 10.2368 5.37542 10.2368 5.28349V1.0567C10.2368 0.473401 9.76344 0 9.18015 0H6.01005C5.42675 0 4.95335 0.473401 4.95335 1.0567V2.1134C4.95335 2.69669 5.42675 3.17009 6.01005 3.17009C6.59335 3.17009 7.06675 2.69669 7.06675 2.1134H8.12345V5.14506L4.98664 16.9087C4.97502 16.9087 4.96445 16.9072 4.95335 16.9072C2.62281 16.9072 0.726562 18.8034 0.726562 21.134C0.726562 23.4645 2.62281 25.3607 4.95335 25.3607C7.2839 25.3607 9.18015 23.4645 9.18015 21.134C9.18015 19.5574 8.31048 18.1821 7.02818 17.4556L7.40753 16.0327L11.4906 21.7484C11.6887 22.0258 12.0089 22.1907 12.3502 22.1907H26.2268C26.6981 24.0108 28.3492 25.3607 30.3141 25.3607C32.6446 25.3607 34.5409 23.4645 34.5409 21.134C34.5409 18.8034 32.6446 16.9072 30.3141 16.9072ZM7.06675 21.134C7.06675 22.2995 6.11889 23.2474 4.95335 23.2474C3.78782 23.2474 2.83996 22.2995 2.83996 21.134C2.83996 20.1607 3.50462 19.3476 4.40123 19.103L3.93206 20.8619C3.782 21.4256 4.11698 22.0047 4.68073 22.1553C4.77213 22.1796 4.86406 22.1907 4.95388 22.1907C5.42094 22.1907 5.84838 21.8784 5.97465 21.4061L6.44594 19.6387C6.82899 20.0218 7.06675 20.5507 7.06675 21.134ZM30.3141 23.2474C29.5348 23.2474 28.8611 22.8194 28.495 22.1907H30.3141C30.8974 22.1907 31.3708 21.7173 31.3708 21.134C31.3708 20.5507 30.8974 20.0773 30.3141 20.0773H28.495C28.8611 19.4485 29.5353 19.0206 30.3141 19.0206C31.4796 19.0206 32.4275 19.9684 32.4275 21.134C32.4275 22.2995 31.4796 23.2474 30.3141 23.2474Z" fill="#4B4B4B"/>
</svg>
