<svg width="35" height="31" viewBox="0 0 35 31" fill="none" xmlns="http://www.w3.org/2000/svg">
<path d="M29.764 27.9527C31.8395 27.9527 33.522 26.2702 33.522 24.1946C33.522 22.1191 31.8395 20.4365 29.764 20.4365C27.6884 20.4365 26.0059 22.1191 26.0059 24.1946C26.0059 26.2702 27.6884 27.9527 29.764 27.9527Z" fill="#A3C8FF"/>
<path d="M13.1214 27.9527C15.1969 27.9527 16.8795 26.2702 16.8795 24.1946C16.8795 22.1191 15.1969 20.4365 13.1214 20.4365C11.0458 20.4365 9.36328 22.1191 9.36328 24.1946C9.36328 26.2702 11.0458 27.9527 13.1214 27.9527Z" fill="#3079E6"/>
<path d="M7.21484 27.9524L10.9729 24.1943L14.731 27.9524H7.21484Z" fill="white"/>
<path d="M5.60451 2.7207H3.9939C3.85151 2.7207 3.71496 2.77727 3.61428 2.87795C3.51359 2.97863 3.45703 3.11519 3.45703 3.25757V9.16315H4.53077V7.01567H5.60451C6.17406 7.01567 6.72028 6.78942 7.12301 6.38669C7.52575 5.98395 7.752 5.43773 7.752 4.86819C7.752 4.29864 7.52575 3.75242 7.12301 3.34969C6.72028 2.94696 6.17406 2.7207 5.60451 2.7207V2.7207ZM5.60451 5.94193H4.53077V3.79444H5.60451C5.88929 3.79444 6.1624 3.90757 6.36376 4.10894C6.56513 4.3103 6.67826 4.58341 6.67826 4.86819C6.67826 5.15296 6.56513 5.42607 6.36376 5.62744C6.1624 5.8288 5.88929 5.94193 5.60451 5.94193Z" fill="#444B54"/>
<path d="M33.5225 27.4158H32.5938C33.371 26.7187 33.8678 25.7623 33.991 24.7255C34.1143 23.6887 33.8557 22.6425 33.2635 21.7826C32.6714 20.9226 31.7862 20.3078 30.7737 20.0532C29.7611 19.7985 28.6904 19.9214 27.7619 20.3989L24.3957 16.5012L24.8306 14.5309H26.5432V13.4572H22.2483V14.5309H23.7354L23.3972 16.1415H16.0957L16.74 13.994H20.1008V12.9203H16.3427C16.2236 12.9152 16.1062 12.9499 16.009 13.0189C15.9118 13.0879 15.8403 13.1873 15.8058 13.3015L13.8301 19.964C13.596 19.9235 13.359 19.9019 13.1215 19.8996C12.4545 19.9002 11.7969 20.0561 11.2007 20.3549C10.6045 20.6538 10.086 21.0874 9.68647 21.6214C9.2869 22.1553 9.01717 22.775 8.89866 23.4313C8.78014 24.0876 8.81609 24.7625 9.00367 25.4025L8.28963 26.1219V23.6577C8.28963 23.5153 8.23306 23.3788 8.13238 23.2781C8.0317 23.1774 7.89514 23.1208 7.75276 23.1208H7.21589V11.3097H9.90024C10.0426 11.3097 10.1792 11.2531 10.2799 11.1524C10.3805 11.0518 10.4371 10.9152 10.4371 10.7728V1.10914C10.4371 0.966749 10.3805 0.830194 10.2799 0.729512C10.1792 0.628829 10.0426 0.572266 9.90024 0.572266H1.31031C1.16792 0.572266 1.03137 0.628829 0.930683 0.729512C0.83 0.830194 0.773438 0.966749 0.773438 1.10914V10.7728C0.773438 10.9152 0.83 11.0518 0.930683 11.1524C1.03137 11.2531 1.16792 11.3097 1.31031 11.3097H3.99466V23.1208H3.45779C3.3154 23.1208 3.17885 23.1774 3.07817 23.2781C2.97748 23.3788 2.92092 23.5153 2.92092 23.6577V27.4158H1.31031C1.16792 27.4158 1.03137 27.4724 0.930683 27.573C0.83 27.6737 0.773438 27.8103 0.773438 27.9527V30.1002C0.773438 30.2425 0.83 30.3791 0.930683 30.4798C1.03137 30.5805 1.16792 30.637 1.31031 30.637H33.5225C33.6649 30.637 33.8015 30.5805 33.9022 30.4798C34.0029 30.3791 34.0594 30.2425 34.0594 30.1002V27.9527C34.0594 27.8103 34.0029 27.6737 33.9022 27.573C33.8015 27.4724 33.6649 27.4158 33.5225 27.4158ZM29.7645 20.9734C30.3787 20.9727 30.9804 21.1478 31.4985 21.4778C32.0166 21.8079 32.4295 22.2792 32.6885 22.8362C32.9476 23.3932 33.0419 24.0126 32.9605 24.6215C32.8791 25.2304 32.6253 25.8033 32.229 26.2726C31.8327 26.742 31.3105 27.0883 30.7239 27.2706C30.1373 27.453 29.5108 27.4638 28.9183 27.3018C28.3257 27.1398 27.7919 26.8118 27.3796 26.3563C26.9674 25.9009 26.6939 25.3371 26.5915 24.7314H30.3013C30.404 24.7317 30.5046 24.7025 30.5912 24.6473C30.6778 24.5921 30.7467 24.5132 30.7899 24.4201C30.8329 24.3267 30.8481 24.2229 30.8339 24.121C30.8196 24.0192 30.7764 23.9236 30.7093 23.8456L28.476 21.2418C28.8824 21.0646 29.3211 20.9732 29.7645 20.9734ZM29.1363 23.6577H26.5915C26.7078 22.9587 27.0534 22.3184 27.574 21.8377L29.1363 23.6577ZM24.138 17.8273L26.8761 21.0485C26.1264 21.7296 25.6415 22.6538 25.5071 23.6577H24.3206C24.243 23.3609 24.1026 23.0842 23.9091 22.8462C23.7155 22.6082 23.4733 22.4144 23.1985 22.2779L24.138 17.8273ZM23.322 24.1946C23.322 24.4069 23.259 24.6145 23.141 24.7911C23.0231 24.9677 22.8554 25.1053 22.6592 25.1866C22.463 25.2679 22.2471 25.2891 22.0388 25.2477C21.8305 25.2063 21.6392 25.104 21.489 24.9538C21.3388 24.8037 21.2366 24.6123 21.1952 24.4041C21.1537 24.1958 21.175 23.9799 21.2563 23.7837C21.3375 23.5875 21.4751 23.4198 21.6517 23.3018C21.8283 23.1838 22.0359 23.1208 22.2483 23.1208C22.533 23.1208 22.8062 23.234 23.0075 23.4353C23.2089 23.6367 23.322 23.9098 23.322 24.1946ZM23.1663 17.2153L22.1516 22.0471C21.83 22.062 21.516 22.1501 21.2336 22.3048L16.4984 17.2153H23.1663ZM15.5964 17.8166L20.4283 23.0403C20.2625 23.3022 20.1554 23.5969 20.1143 23.9041C20.0731 24.2113 20.099 24.5238 20.1901 24.82C20.2812 25.1163 20.4353 25.3893 20.6419 25.6204C20.8486 25.8514 21.1027 26.035 21.387 26.1585C21.6713 26.282 21.9789 26.3425 22.2888 26.3359C22.5987 26.3293 22.9035 26.2556 23.1822 26.12C23.4609 25.9844 23.707 25.7901 23.9035 25.5504C24.1 25.3107 24.2423 25.0313 24.3206 24.7314H25.5071C25.6398 25.7704 26.1477 26.7251 26.9351 27.4158H15.94C16.4806 26.9413 16.8933 26.3387 17.1403 25.6632C17.3874 24.9877 17.4608 24.261 17.3539 23.5498C17.2471 22.8385 16.9633 22.1655 16.5286 21.5925C16.094 21.0194 15.5224 20.5647 14.8663 20.2701L15.5964 17.8166ZM13.1215 20.9734C13.2538 20.9652 13.3864 20.9652 13.5187 20.9734L12.5846 24.0389L13.6154 24.3503L14.5281 21.3116C15.0605 21.5769 15.5091 21.9844 15.8241 22.4891C16.1391 22.9938 16.3082 23.5758 16.3126 24.1707C16.3171 24.7655 16.1567 25.35 15.8493 25.8593C15.5419 26.3686 15.0994 26.7829 14.571 27.0561L11.3498 23.8349C11.2999 23.7846 11.2405 23.7446 11.1751 23.7174C11.1097 23.6901 11.0395 23.6761 10.9686 23.6761C10.8977 23.6761 10.8276 23.6901 10.7621 23.7174C10.6967 23.7446 10.6373 23.7846 10.5874 23.8349L9.90024 24.4952C9.89489 24.3951 9.89489 24.2947 9.90024 24.1946C9.90024 23.3403 10.2396 22.5209 10.8437 21.9168C11.4478 21.3127 12.2671 20.9734 13.1215 20.9734ZM10.974 24.9516L13.4382 27.4158H8.50974L10.974 24.9516ZM1.84718 10.2359V1.64601H9.36337V10.2359H1.84718ZM6.14214 11.3097V23.1208H5.0684V11.3097H6.14214ZM3.99466 24.1946H7.21589V27.1957L6.99577 27.4158H3.99466V24.1946ZM32.9857 29.5633H1.84718V28.4895H32.9857V29.5633Z" fill="#444B54"/>
</svg>
